# xmcd
# Copyright (C) 1995-1998 Ti Kan
#
# Track frame offsets:
#       150
#       16266
#       31876
#       46941
#       64183
#       81724
#       96457
#       112089
#       130476
#       146939
#       165342
#       181495
#       199072
#
# Disc length: 2848 seconds
#
# Revision: 0
# Processed by: cddbd v1.4b42PL1 Copyright (c) Steve Scherf et al.
# Submitted via: CD-Transfer v1.0
#
DISCID=bf0b1e0d
DTITLE=Critical Acid - Tiefenrausch
DYEAR=2000
DGENRE=
TTITLE0=Lebenstag
TTITLE1=Don't Wanna Leave You Now
TTITLE2=Bestseller
TTITLE3=Virtual Jesus
TTITLE4=Engel and Teufel
TTITLE5=Mister Normal
TTITLE6=Am Weg Der Zeit
TTITLE7=Tiefenrausch
TTITLE8=Die Letzten Tage Der Königin
TTITLE9=Tränentanz
TTITLE10=Wahnsinn
TTITLE11=Still Searchin'
TTITLE12=Engel and Teufel (Remix)
EXTD=
EXTT0=
EXTT1=
EXTT2=
EXTT3=
EXTT4=
EXTT5=
EXTT6=
EXTT7=
EXTT8=
EXTT9=
EXTT10=
EXTT11=
EXTT12=
PLAYORDER=
